HIERARCHY
ROOT Hips
{
	OFFSET 0.000000 0.000000 0.000000 
	CHANNELS 6 Xposition Yposition Zposition Zrotation Yrotation Xrotation
	JOINT LeftUpLeg
	{
		OFFSET 1.363060 -1.794630 0.839290 
		CHANNELS 3 Zrotation Yrotation Xrotation
		JOINT LeftLeg
		{
			OFFSET 2.448110 -6.726130 0.000000 
			CHANNELS 3 Zrotation Yrotation Xrotation
			JOINT LeftFoot
			{
				OFFSET 2.562200 -7.039590 0.000000 
				CHANNELS 3 Zrotation Yrotation Xrotation
				JOINT LeftToeBase
				{
					OFFSET 0.157640 -0.433110 2.322550 
					CHANNELS 3 Zrotation Yrotation Xrotation
					End Site
					{
						OFFSET 0.000000 0.000000 0.000000 
					}
				}
			}
		}
	}
	JOINT RightUpLeg
	{
		OFFSET -1.305520 -1.794630 0.839290 
		CHANNELS 3 Zrotation Yrotation Xrotation
		JOINT RightLeg
		{
			OFFSET -2.542530 -6.985550 0.000000 
			CHANNELS 3 Zrotation Yrotation Xrotation
			JOINT RightFoot
			{
				OFFSET -2.568260 -7.056230 0.000000 
				CHANNELS 3 Zrotation Yrotation Xrotation
				JOINT RightToeBase
				{
					OFFSET -0.164730 -0.452590 2.363150 
					CHANNELS 3 Zrotation Yrotation Xrotation
					End Site
					{
						OFFSET 0.000000 0.000000 0.000000 
					}
				}
			}
		}
	}
	JOINT Spine
	{
		OFFSET 0.028270 2.035590 -0.193380 
		CHANNELS 3 Zrotation Yrotation Xrotation
		JOINT Spine1
		{
			OFFSET 0.056720 2.048850 -0.042750 
			CHANNELS 3 Zrotation Yrotation Xrotation
			JOINT Neck1
			{
				OFFSET -0.054170 1.746240 0.172020 
				CHANNELS 3 Zrotation Yrotation Xrotation
				JOINT Head
				{
					OFFSET 0.104070 1.761360 -0.123970 
					CHANNELS 3 Zrotation Yrotation Xrotation
					End Site
					{
						OFFSET 0.000000 0.000000 0.000000 
					}
				}
			}
			JOINT LeftArm
			{
				OFFSET 3.362410 1.200890 -0.311210 
				CHANNELS 3 Zrotation Yrotation Xrotation
				JOINT LeftForeArm
				{
					OFFSET 4.983000 -0.000000 -0.000000 
					CHANNELS 3 Zrotation Yrotation Xrotation
					JOINT LeftHand
					{
						OFFSET 3.483560 -0.000000 -0.000000 
						CHANNELS 3 Zrotation Yrotation Xrotation
						JOINT LeftHandIndex1
						{
							OFFSET 0.715260 -0.000000 -0.000000 
							CHANNELS 3 Zrotation Yrotation Xrotation
							End Site
							{
								OFFSET 0.000000 0.000000 0.000000 
							}
						}
					}
				}
			}
			JOINT RightArm
			{
				OFFSET -3.136600 1.374050 -0.404650 
				CHANNELS 3 Zrotation Yrotation Xrotation
				JOINT RightForeArm
				{
					OFFSET -5.241900 -0.000000 -0.000000 
					CHANNELS 3 Zrotation Yrotation Xrotation
					JOINT RightHand
					{
						OFFSET -3.444170 -0.000000 -0.000000 
						CHANNELS 3 Zrotation Yrotation Xrotation
						JOINT RightHandIndex1
						{
							OFFSET -0.622530 -0.000000 -0.000000 
							CHANNELS 3 Zrotation Yrotation Xrotation
							End Site
							{
								OFFSET 0.000000 0.000000 0.000000 
							}
						}
					}
				}
			}
		}
	}
}
MOTION
Frames: 18
Frame Time: 0.041667
12.875551 17.677205 34.118300 -6.211906 5.922709 -38.109218 -12.095218 -1.779529 -20.216142 4.517284 13.550365 40.453242 1.404859 -19.150961 -13.396197 0.069800 1.704600 4.689900 22.903841 5.162795 -19.573147 -4.519312 -13.615234 40.920003 -0.638533 -2.969670 -17.823007 -0.481300 -4.449000 12.343300 0.811177 -1.563828 1.711110 2.199366 -0.857201 -3.436203 12.889811 -10.382295 -26.183258 6.589100 -4.999400 -8.878400 -88.543634 -8.489051 43.197655 97.505944 -59.697609 -67.794995 0.197816 -0.108192 33.729891 -7.125000 0.000000 0.000000 81.761388 10.825290 51.504622 -98.711515 59.616412 -68.609442 0.069089 0.323359 19.321432 7.125000 0.000000 0.000000 
12.844453 17.753833 34.193810 -7.013793 6.079014 -38.056794 -11.387097 -1.697969 -20.045198 4.483705 13.509803 40.299862 1.369052 -19.340935 -13.041421 0.069500 1.700600 4.679000 23.514261 5.615785 -19.170779 -4.512631 -13.612605 40.896458 -0.856414 -1.500727 -18.311512 -0.861700 -5.919400 16.550800 0.726151 -1.921520 1.953271 1.796851 -1.043960 -2.906873 12.996931 -10.387248 -26.596250 6.579000 -5.042100 -9.016200 -88.001285 -8.165686 42.772672 98.878955 -59.639477 -68.971943 0.198408 -0.109391 33.846141 -7.125000 0.000000 0.000000 82.466694 10.345430 51.881930 -99.141823 59.597564 -68.953254 0.085875 0.319210 20.091029 7.125000 0.000000 0.000000 
12.817013 17.849771 34.260377 -7.514465 6.463475 -38.033068 -11.142641 -1.519334 -19.783889 4.455715 13.478198 40.171415 1.356807 -19.617577 -12.968830 0.030400 1.125300 3.093600 23.552511 6.192151 -18.735570 -4.484861 -13.585324 40.769697 -1.092238 0.850385 -18.235546 -1.623500 -8.033300 22.815300 0.662282 -2.225149 2.153150 1.672440 -1.201371 -2.499410 13.109820 -10.382864 -27.050585 6.614400 -5.063900 -9.188000 -87.838753 -7.614057 42.464934 100.559086 -59.541895 -70.394393 0.197639 -0.112124 34.272794 -7.125000 0.000000 0.000000 82.594892 9.810253 52.447594 -100.784075 59.496156 -70.330006 0.086515 0.317949 19.980758 7.125000 0.000000 0.000000 
12.797399 17.927314 34.326334 -7.271790 7.136384 -37.747315 -11.758222 -1.206743 -19.756944 4.422858 13.453366 40.058231 1.340348 -19.842394 -12.948384 0.010000 0.646900 1.777700 22.890118 6.113355 -18.472996 -4.441001 -13.540045 40.573844 -1.225050 2.676027 -17.883361 -2.174300 -9.220100 26.486300 0.548607 -2.419350 2.449587 1.924558 -1.318004 -1.726706 13.219285 -10.452726 -27.710217 6.687100 -5.098100 -9.413100 -87.881544 -7.416605 42.254814 102.025847 -59.436426 -71.627612 0.196529 -0.116551 34.709282 -7.125000 0.000000 0.000000 81.883423 9.904347 53.387524 -102.419344 59.374047 -71.700908 0.083610 0.319333 19.510037 7.125000 0.000000 0.000000 
12.771585 17.991035 34.402251 -7.749179 7.889796 -37.628311 -11.708877 -1.289912 -19.646976 4.377812 13.396954 39.864255 1.298887 -20.335479 -12.718349 0.019100 0.891900 2.451300 22.911676 5.948617 -18.164414 -4.395462 -13.487370 40.364834 -1.362508 4.178865 -17.981715 -2.659200 -10.121800 29.372000 0.433607 -2.587952 1.537636 1.751605 -1.350814 -3.804923 12.978440 -10.945036 -27.538894 6.705300 -5.318900 -9.606400 -87.646453 -4.861436 42.888517 103.600854 -59.291483 -72.921266 0.195423 -0.124073 35.134335 -7.125000 0.000000 0.000000 81.847077 6.911261 54.143981 -103.447090 59.279166 -72.530965 0.107614 0.322485 20.595085 7.125000 0.000000 0.000000 
12.748617 18.060041 34.477050 -8.358254 7.813142 -37.642554 -10.903994 -1.364525 -19.557469 4.337072 13.355251 39.684594 1.223321 -20.908799 -12.166143 0.074700 1.763400 4.852200 23.586725 6.303021 -17.499843 -4.356617 -13.442766 40.175278 -1.498055 6.326354 -17.814337 -3.317900 -11.192700 32.932500 0.630981 -2.510418 2.072643 1.935708 -1.343409 -2.569111 13.045561 -11.227566 -28.161508 6.786500 -5.420500 -9.757400 -87.781510 -5.299275 43.161237 104.503759 -59.205109 -73.670721 0.194037 -0.127962 35.567389 -7.125000 0.000000 0.000000 81.177756 7.221653 53.762598 -103.883011 59.251789 -72.911291 0.095518 0.316827 19.033645 7.125000 0.000000 0.000000 
12.728088 18.136872 34.551645 -8.486015 7.937537 -37.618223 -10.707871 -1.222755 -19.233491 4.280293 13.304242 39.453403 1.196294 -21.215603 -12.019134 0.101500 2.054900 5.657400 23.628763 6.812457 -16.838114 -4.298707 -13.379849 39.914458 -1.532867 8.413621 -17.028727 -4.129200 -12.330400 36.910900 0.870354 -2.428133 2.974677 2.600253 -1.371059 -0.477178 13.189829 -11.472294 -29.007426 6.879400 -5.490600 -9.861400 -88.238046 -6.333428 43.260288 105.644238 -59.083470 -74.619677 0.191681 -0.132849 35.749946 -7.125000 0.000000 0.000000 80.134471 8.280725 54.019223 -104.881315 59.166438 -73.757559 0.096741 0.322213 18.366977 7.125000 0.000000 0.000000 
12.706847 18.191345 34.632338 -8.528265 8.295649 -37.551850 -10.747112 -1.080871 -19.007083 4.246534 13.275749 39.311850 1.174945 -21.650893 -12.019588 0.066400 1.663000 4.575200 23.608391 6.706681 -16.219775 -4.253190 -13.329638 39.704135 -1.569863 9.949759 -16.708979 -4.668000 -12.999900 39.368200 1.028251 -2.364839 3.530507 3.193558 -1.403134 0.811734 13.210361 -11.856883 -29.742875 6.953900 -5.624500 -10.029500 -88.573461 -6.639553 43.550640 107.138991 -58.900682 -75.855690 0.189011 -0.139925 35.604947 -7.125000 0.000000 0.000000 79.255585 8.556149 54.129151 -105.510400 59.113410 -74.289209 0.100137 0.323290 18.072829 7.125000 0.000000 0.000000 
12.684997 18.271429 34.696873 -8.772329 8.515600 -37.344909 -10.510844 -0.947377 -18.850431 4.171569 13.192375 38.985810 1.144569 -22.120854 -11.909306 0.044400 1.360200 3.740500 23.635778 7.314201 -15.914777 -4.196252 -13.266687 39.465722 -1.501993 11.353150 -15.656041 -5.270800 -13.682400 41.979900 1.203426 -2.310646 3.735189 3.625130 -1.414567 1.419360 13.244157 -12.253294 -30.161156 7.049100 -5.763500 -10.126800 -88.923071 -6.238645 43.834523 108.724042 -58.681809 -77.160606 0.189215 -0.144980 35.596141 -7.125000 0.000000 0.000000 78.371955 8.087469 54.203734 -106.505156 59.008861 -75.122747 0.100320 0.324378 17.876883 7.125000 0.000000 0.000000 
12.673412 18.316349 34.775025 -8.847801 8.894120 -36.944783 -10.562706 -1.089170 -18.913688 4.129139 13.150725 38.817905 1.114435 -22.400283 -11.780188 0.043100 1.340500 3.686200 23.625462 6.565018 -15.822552 -4.158541 -13.222228 39.284419 -1.527597 12.521618 -15.583313 -5.391500 -13.811600 42.487900 1.316689 -2.299926 3.826754 4.059635 -1.446610 1.882783 13.275014 -12.489957 -30.575307 7.140800 -5.838300 -10.278600 -89.250354 -5.739155 43.952548 110.030604 -58.483352 -78.233617 0.192912 -0.143596 35.641430 -7.125000 0.000000 0.000000 77.509119 7.507100 54.512955 -107.745383 58.860122 -76.155377 0.101969 0.325735 17.347343 7.125000 0.000000 0.000000 
12.661826 18.396635 34.836104 -8.707837 9.354713 -36.595886 -10.866561 -1.368067 -18.654421 4.054031 13.074894 38.527448 1.096168 -22.557530 -11.729751 0.044300 1.358000 3.734500 22.939449 7.358954 -15.564370 -4.074194 -13.131242 38.945666 -1.387590 14.185825 -14.033202 -5.877100 -14.308200 44.486500 1.299033 -2.338260 3.983050 4.325148 -1.504329 2.437111 13.401768 -12.538247 -31.341614 7.319300 -5.830700 -10.650900 -89.302372 -5.306446 44.174251 111.341330 -58.269043 -79.307978 0.189722 -0.148702 35.957480 -7.125000 0.000000 0.000000 76.785300 7.172485 54.886261 -108.531163 58.761978 -76.804201 0.106543 0.326596 16.791113 7.125000 0.000000 0.000000 
12.657253 18.452836 34.909683 -8.674432 9.645941 -36.292559 -10.986609 -1.685942 -18.402625 3.993979 13.010291 38.286152 1.084287 -22.714785 -11.716860 0.045300 1.372900 3.775400 22.773682 6.785104 -15.418313 -3.998361 -13.049384 38.622560 -1.371178 14.907073 -13.807779 -5.852800 -14.284100 44.387900 1.108152 -2.366039 4.110222 4.013870 -1.521151 2.880075 13.740981 -12.689552 -32.199860 7.582900 -5.898300 -11.051500 -88.947032 -4.636196 44.375548 112.959394 -57.983149 -80.639151 0.187586 -0.154793 36.210716 -7.125000 0.000000 0.000000 76.471482 6.672176 55.186520 -109.346881 58.647845 -77.472367 0.113836 0.324822 16.368739 7.125000 0.000000 0.000000 
12.650443 18.514626 34.983974 -8.889880 9.796054 -35.972893 -10.765838 -2.169575 -18.262000 3.947908 12.934121 38.069350 1.060900 -22.964025 -11.596678 0.044700 1.363900 3.750700 22.906835 6.220215 -15.407929 -3.896641 -12.931015 38.186534 -1.374494 15.127148 -13.809867 -5.795600 -14.227300 44.155900 0.480356 -3.021946 1.989067 2.660905 -1.622364 -1.718182 13.608628 -12.474223 -30.727464 7.531900 -5.886800 -10.957900 -87.728358 0.926765 43.630500 115.984470 -57.360998 -83.121341 0.185403 -0.166689 36.674429 -7.125000 0.000000 0.000000 77.337217 1.952107 57.555964 -110.879227 58.367173 -78.687005 0.126035 0.315897 16.219664 7.125000 0.000000 0.000000 
12.636724 18.604263 35.041089 -9.420109 9.700182 -35.835367 -10.069380 -2.643197 -17.918539 3.921561 12.880900 37.921672 1.021832 -23.325073 -11.366562 0.051200 1.459800 4.015000 23.381482 6.466536 -15.257560 -3.782564 -12.806369 37.728719 -1.341404 14.637241 -13.548185 -5.725200 -14.156600 43.868600 -0.115402 -2.585206 1.175675 0.701675 -1.340541 -3.587624 13.858832 -13.272374 -30.354782 7.686600 -6.333900 -11.025400 -86.110047 3.426140 45.256589 117.339694 -57.055101 -84.217213 0.187621 -0.174564 36.869357 -7.125000 0.000000 0.000000 78.286924 -0.976246 57.200945 -111.983556 58.161470 -79.582066 0.134848 0.308935 16.051786 7.125000 0.000000 0.000000 
12.625646 18.645626 35.111315 -9.985251 9.421260 -35.912947 -9.229446 -2.785340 -17.558901 3.900059 12.848114 37.797101 0.990026 -23.638764 -11.169447 0.055200 1.516400 4.170900 24.379123 5.869559 -14.850718 -3.696586 -12.699988 37.335246 -1.447742 14.063374 -14.625491 -5.563300 -13.991300 43.202700 0.094077 -2.541769 1.168461 0.895675 -1.322599 -3.626478 13.760553 -13.396648 -30.431694 7.688000 -6.366200 -11.080500 -86.446990 4.468774 45.204125 118.920568 -56.662527 -85.498545 0.186880 -0.177150 37.159932 -7.125000 0.000000 0.000000 77.334641 -1.726730 57.925312 -112.622967 58.052292 -80.103606 0.133135 0.303157 15.873936 7.125000 0.000000 0.000000 
12.619040 18.681399 35.183471 -9.887482 9.518997 -35.645316 -9.255323 -3.007185 -17.424788 3.841923 12.781805 37.559397 0.949831 -23.896818 -10.971950 0.067200 1.672300 4.600900 24.469573 5.403150 -14.789966 -3.629069 -12.615394 37.018615 -1.576761 13.509792 -15.809678 -5.468000 -13.892200 42.807300 -0.035751 -2.404975 1.050184 0.705682 -1.251576 -3.759176 13.818655 -13.823736 -30.471288 7.736600 -6.559000 -11.057600 -86.087934 5.200121 45.749033 119.921139 -56.399930 -86.304310 0.185970 -0.182550 37.154572 -7.125000 0.000000 0.000000 76.856384 -2.823101 58.174313 -113.551510 57.879846 -80.865519 0.132082 0.298761 15.061710 7.125000 0.000000 0.000000 
12.614569 18.748474 35.239570 -9.562993 9.807193 -35.173792 -9.556725 -3.653351 -17.190836 3.729203 12.659096 37.127385 0.858778 -24.218697 -10.424400 0.104600 2.085100 5.740800 24.074362 5.127851 -15.057773 -3.607442 -12.590743 36.927681 -1.643087 12.628731 -16.488853 -5.175200 -13.578400 41.574000 -0.205849 -2.313475 0.981256 0.619917 -1.204815 -3.643634 13.965041 -14.231769 -30.585258 7.819800 -6.740700 -11.016600 -86.162023 5.991474 45.937548 120.709802 -56.186757 -86.936354 0.185391 -0.183871 37.603533 -7.125000 0.000000 0.000000 76.423657 -3.670045 58.726696 -114.755691 57.639995 -81.853510 0.135314 0.309278 14.085910 7.125000 0.000000 0.000000 
12.615991 18.805589 35.292011 -9.075119 10.142351 -34.695278 -10.063930 -4.352646 -16.923891 3.636912 12.562078 36.786607 0.788545 -24.408677 -10.015716 0.132200 2.343700 6.456500 23.571353 4.383485 -15.382016 -3.567822 -12.545688 36.762970 -1.714295 11.278823 -17.378706 -4.592300 -12.909400 39.030300 -0.390595 -2.206422 1.006373 0.603207 -1.152752 -3.358357 14.127528 -14.488782 -30.693814 7.892700 -6.859200 -10.974200 -86.407136 6.675778 46.002089 121.821389 -55.870743 -87.829539 0.185103 -0.184826 38.038152 -7.125000 0.000000 0.000000 75.830741 -4.117408 59.420891 -115.658520 57.451636 -82.594176 0.126893 0.328936 12.442233 7.125000 0.000000 0.000000 
